<?xml version="1.0" encoding="utf-8"?>
<!-- Generator: Adobe Illustrator 16.0.0, SVG Export Plug-In . SVG Version: 6.00 Build 0)  -->
<!DOCTYPE svg PUBLIC "-//W3C//DTD SVG 1.1 Basic//EN" "http://www.w3.org/Graphics/SVG/1.1/DTD/svg11-basic.dtd">
<svg version="1.1" baseProfile="basic" xmlns="http://www.w3.org/2000/svg" xmlns:xlink="http://www.w3.org/1999/xlink" x="0px"
	 y="0px" width="36.75px" height="42.52px" viewBox="0 0 36.75 42.52" xml:space="preserve">
<g id="Calque_2_-_copie" display="none">
	<g display="inline">
		<text transform="matrix(1 0 0 1 5.4668 34.5664)" fill="#009FE3" font-family="'Squealer-Regular'" font-size="35.5865">J</text>
		<text transform="matrix(1 0 0 1 18.4678 34.5664)" fill="#009FE3" font-family="'Squealer-Regular'" font-size="35.5865">G</text>
	</g>
</g>
<g id="logo" display="none">
	<polygon display="inline" points="36.837,31.834 18.456,42.447 0.076,31.834 0.076,10.613 18.456,0 36.837,10.613 	"/>
	<g display="inline">
		<polygon fill="#009640" points="17.766,30.17 17.788,30.159 17.766,30.123 17.788,8.241 12.994,5.353 12.994,27.411 9.342,29.525 
			6.453,27.827 1.826,30.638 9.265,35.021 9.292,35.005 9.324,35.059 17.724,30.195 17.766,30.195 		"/>
		<polygon fill="#009640" points="35.003,30.842 35.035,19.195 30.381,21.921 30.381,28.452 28.079,29.817 23.9,27.411 23.9,10.956 
			27.375,12.959 32.075,10.227 23.9,5.492 23.9,5.353 19.105,8.241 19.127,30.123 19.106,30.159 19.127,30.17 19.127,30.195 
			19.171,30.195 27.57,35.059 27.601,35.005 27.626,35.021 		"/>
	</g>
</g>
<g id="Calque_6" display="none">
	<rect x="-5.021" y="-2.188" display="inline" fill="#B64A95" width="43.875" height="45.75"/>
</g>
<g id="logo_-_copie_3">
	<g>
		<path d="M1.222,31.486c-0.135-0.079-0.245-0.19-0.322-0.32v0.148l6.346,3.664L1.222,31.486z"/>
		<g>
			<polygon opacity="0.5" fill="#FFFFFF" points="28.49,14.628 24.724,12.499 24.724,26.891 27.996,28.775 29.405,27.939 
				29.405,21.406 35.937,17.624 35.937,11.132 35.219,10.718 			"/>
			<path opacity="0.5" fill="#FFFFFF" d="M12.018,26.893V5.353c0-0.325,0.175-0.624,0.457-0.784
				c0.138-0.078,0.291-0.116,0.443-0.116c0.161,0,0.322,0.043,0.464,0.129l4.794,2.888c0.063,0.038,0.12,0.084,0.171,0.136
				l5.486-3.417L18.38,1.039L0.9,11.132v19.122c0.074-0.125,0.176-0.234,0.304-0.313l4.703-2.881
				c0.144-0.088,0.307-0.133,0.47-0.133c0.158,0,0.315,0.042,0.456,0.124l2.437,1.433L12.018,26.893z"/>
			<path opacity="0.5" fill="#FFFFFE" d="M18.197,30.327C18.14,30.387,9.167,35.5,9,35.604c0.271,0.229,9.258,5.32,9.258,5.32
				l9.123-5.268L18.197,30.327z"/>
			<polygon points="35.902,31.335 35.937,31.314 35.937,18.346 			"/>
		</g>
	</g>
	<path fill="#FFFFFF" d="M36.761,10.811L18.38,0L0,10.613v21.221l18.38,10.613l9.121-5.267l0.002,0.001l0.901-0.518l8.32-4.809
		L36.761,10.811z M34.961,17.107l-0.913,0.535l-4.653,2.726l-0.89,0.521v1.032v5.505l-0.517,0.306l-2.365-1.362V14.042l1.972,1.115
		l0.903,0.511l0.895-0.526l4.901-2.881l0.667-0.392V17.107z M27.503,35.102l-8.452-4.906V30.17l-0.021-0.011L19.029,8.241
		l4.822-3.003l9.504,5.487l-4.874,2.865l-4.657-2.634v16.456l4.179,2.406l2.303-1.365v-6.531l4.653-2.726l-0.031,11.619
		L27.503,35.102z M18.38,2.079l3.705,2.139l-3.883,2.418l-3.575-2.39L18.38,2.079z M1.8,11.652l9.368-5.409V26.32l-1.845,1.068
		c0,0-2.099-1.232-2.766-1.566c-0.764,0.44-3.315,1.896-4.757,2.718V11.652z M1.8,30.698v-0.091l4.627-2.834l2.889,1.699
		l3.651-2.115V5.3l4.262,2.567v0.374l0.001,21.918v0.275L9.234,35.01L1.8,30.698z M10.97,36.09l7.378-4.222l7.357,4.271l-7.326,4.23
		L10.97,36.09z"/>
</g>
<g id="logo_-_copie" display="none">
	<path display="inline" d="M18.456,0L0.076,10.613v21.221l18.38,10.613l18.381-10.613V10.613L18.456,0z M17.788,30.159l-0.021,0.011
		v0.025h-0.042l-8.4,4.863l-0.032-0.054l-0.027,0.017l-7.438-4.384l4.627-2.811l2.889,1.698l3.651-2.114V5.353l4.794,2.888
		l-0.022,21.882L17.788,30.159z M35.003,30.842l-7.377,4.18l-0.025-0.017l-0.031,0.054l-8.398-4.863h-0.044V30.17l-0.021-0.011
		l0.021-0.036L19.105,8.241L23.9,5.353v0.139l8.175,4.735l-4.7,2.732L23.9,10.956v16.456l4.179,2.406l2.303-1.365v-6.531
		l4.653-2.726L35.003,30.842z"/>
</g>
<g id="logo_-_copie_2" display="none">
	<path display="inline" fill="#FFFFFF" d="M18.456,0L0.076,10.613v21.221l18.38,10.613l18.381-10.613V10.613L18.456,0z
		 M17.788,30.159l-0.021,0.011v0.025h-0.042l-8.4,4.863l-0.032-0.054l-0.027,0.017l-7.438-4.384l4.627-2.811l2.889,1.698
		l3.651-2.114V5.353l4.794,2.888l-0.022,21.882L17.788,30.159z M35.003,30.842l-7.377,4.18l-0.025-0.017l-0.031,0.054l-8.398-4.863
		h-0.044V30.17l-0.021-0.011l0.021-0.036L19.105,8.241L23.9,5.353v0.139l8.175,4.735l-4.7,2.732L23.9,10.956v16.456l4.179,2.406
		l2.303-1.365v-6.531l4.653-2.726L35.003,30.842z"/>
</g>
</svg>
