<?xml version="1.0" encoding="utf-8"?>
<!-- Generator: Adobe Illustrator 16.0.0, SVG Export Plug-In . SVG Version: 6.00 Build 0)  -->
<!DOCTYPE svg PUBLIC "-//W3C//DTD SVG 1.1 Basic//EN" "http://www.w3.org/Graphics/SVG/1.1/DTD/svg11-basic.dtd">
<svg version="1.1" baseProfile="basic" xmlns="http://www.w3.org/2000/svg" xmlns:xlink="http://www.w3.org/1999/xlink" x="0px"
	 y="0px" width="36.75px" height="42.52px" viewBox="0 0 36.75 42.52" xml:space="preserve">
<g id="Calque_2_-_copie" display="none">
	<g display="inline">
		<text transform="matrix(1 0 0 1 5.4668 34.5664)" fill="#009FE3" font-family="'Squealer-Regular'" font-size="35.5865">J</text>
		<text transform="matrix(1 0 0 1 18.4678 34.5664)" fill="#009FE3" font-family="'Squealer-Regular'" font-size="35.5865">G</text>
	</g>
</g>
<g id="logo" display="none">
	<polygon display="inline" points="36.837,31.834 18.456,42.447 0.076,31.834 0.076,10.613 18.456,0 36.837,10.613 	"/>
	<g display="inline">
		<polygon fill="#009640" points="17.766,30.17 17.788,30.159 17.766,30.123 17.788,8.241 12.994,5.353 12.994,27.411 9.342,29.525 
			6.453,27.827 1.826,30.638 9.265,35.021 9.292,35.005 9.324,35.059 17.724,30.195 17.766,30.195 		"/>
		<polygon fill="#009640" points="35.003,30.842 35.035,19.195 30.381,21.921 30.381,28.452 28.079,29.817 23.9,27.411 23.9,10.956 
			27.375,12.959 32.075,10.227 23.9,5.492 23.9,5.353 19.105,8.241 19.127,30.123 19.106,30.159 19.127,30.17 19.127,30.195 
			19.171,30.195 27.57,35.059 27.601,35.005 27.626,35.021 		"/>
	</g>
</g>
<g id="Calque_6" display="none">
	<rect x="-5.021" y="-2.188" display="inline" fill="#B64A95" width="43.875" height="45.75"/>
</g>
<g id="logo_-_copie_3">
	<radialGradient id="SVGID_1_" cx="18.3804" cy="21.2236" r="19.8532" gradientUnits="userSpaceOnUse">
		<stop  offset="0" style="stop-color:#45A5BF;stop-opacity:0"/>
		<stop  offset="0.8648" style="stop-color:#45A5BF;stop-opacity:0.8648"/>
		<stop  offset="1" style="stop-color:#45A5BF"/>
	</radialGradient>
	<path opacity="0.8" fill="url(#SVGID_1_)" d="M18.38,0L0,10.613v21.221l18.38,10.613l9.121-5.267l0.002,0.001l0.901-0.518
		l8.32-4.809l0.037-21.045L18.38,0z M1.8,30.607l4.627-2.834l2.889,1.699l3.651-2.115V5.3l4.262,2.567v0.374l0.001,21.918v0.275
		L9.234,35.01L1.8,30.698V30.607z M34.927,30.814l-7.424,4.287l-8.452-4.906V30.17l-0.021-0.011L19.029,8.241l4.822-3.003
		l9.504,5.487l-4.874,2.865l-4.657-2.634v16.456l4.179,2.406l2.303-1.365v-6.531l4.653-2.726L34.927,30.814z"/>
</g>
<g id="logo_-_copie" display="none">
	<path display="inline" d="M18.456,0L0.076,10.613v21.221l18.38,10.613l18.381-10.613V10.613L18.456,0z M17.788,30.159l-0.021,0.011
		v0.025h-0.042l-8.4,4.863l-0.032-0.054l-0.027,0.017l-7.438-4.384l4.627-2.811l2.889,1.698l3.651-2.114V5.353l4.794,2.888
		l-0.022,21.882L17.788,30.159z M35.003,30.842l-7.377,4.18l-0.025-0.017l-0.031,0.054l-8.398-4.863h-0.044V30.17l-0.021-0.011
		l0.021-0.036L19.105,8.241L23.9,5.353v0.139l8.175,4.735l-4.7,2.732L23.9,10.956v16.456l4.179,2.406l2.303-1.365v-6.531
		l4.653-2.726L35.003,30.842z"/>
</g>
<g id="logo_-_copie_2" display="none">
	<path display="inline" fill="#FFFFFF" d="M18.456,0L0.076,10.613v21.221l18.38,10.613l18.381-10.613V10.613L18.456,0z
		 M17.788,30.159l-0.021,0.011v0.025h-0.042l-8.4,4.863l-0.032-0.054l-0.027,0.017l-7.438-4.384l4.627-2.811l2.889,1.698
		l3.651-2.114V5.353l4.794,2.888l-0.022,21.882L17.788,30.159z M35.003,30.842l-7.377,4.18l-0.025-0.017l-0.031,0.054l-8.398-4.863
		h-0.044V30.17l-0.021-0.011l0.021-0.036L19.105,8.241L23.9,5.353v0.139l8.175,4.735l-4.7,2.732L23.9,10.956v16.456l4.179,2.406
		l2.303-1.365v-6.531l4.653-2.726L35.003,30.842z"/>
</g>
</svg>
