<?xml version="1.0" encoding="UTF-8" standalone="no"?>
<!-- Created with Inkscape (http://www.inkscape.org/) -->

<svg
   xmlns:dc="http://purl.org/dc/elements/1.1/"
   xmlns:cc="http://creativecommons.org/ns#"
   xmlns:rdf="http://www.w3.org/1999/02/22-rdf-syntax-ns#"
   xmlns:svg="http://www.w3.org/2000/svg"
   xmlns="http://www.w3.org/2000/svg"
   xmlns:xlink="http://www.w3.org/1999/xlink"
   xmlns:sodipodi="http://sodipodi.sourceforge.net/DTD/sodipodi-0.dtd"
   xmlns:inkscape="http://www.inkscape.org/namespaces/inkscape"
   width="500"
   height="500"
   viewBox="0 0 132.29166 132.29167"
   version="1.1"
   id="svg8"
   sodipodi:docname="ajax.svg"
   inkscape:version="0.92.4 (5da689c313, 2019-01-14)">
  <defs
     id="defs2">
    <linearGradient
       id="linearGradient8385">
      <stop
         offset="0"
         style="stop-color:#000000;stop-opacity:1"
         id="stop8387" />
      <stop
         offset="1"
         style="stop-color:#ffffff;stop-opacity:1"
         id="stop8389" />
    </linearGradient>
    <linearGradient
       gradientTransform="matrix(0.99884,0,0,0.998699,689.00774,-388.84375)"
       gradientUnits="userSpaceOnUse"
       xlink:href="#linearGradient8385"
       id="linearGradient3002"
       y2="413.0452"
       x2="-666.11639"
       y1="525.90778"
       x1="-553.26971" />
    <linearGradient
       gradientTransform="matrix(0.99884,0,0,0.998699,689.00774,-388.84375)"
       gradientUnits="userSpaceOnUse"
       xlink:href="#linearGradient8385"
       id="linearGradient3005"
       y2="525.90759"
       x2="-553.2699"
       y1="413.04492"
       x1="-666.11664" />
    <linearGradient
       id="linearGradient4222"
       inkscape:collect="always">
      <stop
         id="stop4224"
         offset="0"
         style="stop-color:#70b0df;stop-opacity:1" />
      <stop
         style="stop-color:#1b81c5;stop-opacity:1"
         offset="0.5"
         id="stop4230" />
      <stop
         id="stop4226"
         offset="1"
         style="stop-color:#4a98ce;stop-opacity:1" />
    </linearGradient>
    <linearGradient
       gradientUnits="userSpaceOnUse"
       y2="175.03487"
       x2="162.67442"
       y1="14.452718"
       x1="162.67442"
       id="linearGradient4228"
       xlink:href="#linearGradient4222"
       inkscape:collect="always" />
    <filter
       id="filter4506"
       inkscape:label="Blur"
       style="color-interpolation-filters:sRGB">
      <feGaussianBlur
         id="feGaussianBlur4508"
         result="blur"
         stdDeviation="2 2" />
    </filter>
    <filter
       id="filter4548"
       inkscape:label="Drop Shadow"
       style="color-interpolation-filters:sRGB">
      <feFlood
         id="feFlood4550"
         result="flood"
         flood-color="rgb(0,0,0)"
         flood-opacity="0.498039" />
      <feComposite
         id="feComposite4552"
         result="composite1"
         operator="in"
         in2="SourceGraphic"
         in="flood" />
      <feGaussianBlur
         id="feGaussianBlur4554"
         result="blur"
         stdDeviation="3"
         in="composite1" />
      <feOffset
         id="feOffset4556"
         result="offset"
         dy="6"
         dx="6" />
      <feComposite
         id="feComposite4558"
         result="composite2"
         operator="over"
         in2="offset"
         in="SourceGraphic" />
    </filter>
  </defs>
  <sodipodi:namedview
     id="base"
     pagecolor="#ffffff"
     bordercolor="#666666"
     borderopacity="1.0"
     inkscape:pageopacity="0.0"
     inkscape:pageshadow="2"
     inkscape:zoom="0.75801847"
     inkscape:cx="500.36088"
     inkscape:cy="310.44908"
     inkscape:document-units="mm"
     inkscape:current-layer="layer5"
     showgrid="false"
     units="px"
     inkscape:window-width="1366"
     inkscape:window-height="705"
     inkscape:window-x="-8"
     inkscape:window-y="-8"
     inkscape:window-maximized="1"
     showguides="true"
     inkscape:guide-bbox="true">
    <sodipodi:guide
       position="17.639788,66.282845"
       orientation="0,1"
       id="guide3843"
       inkscape:locked="false" />
    <sodipodi:guide
       position="66.28284,49.177594"
       orientation="1,0"
       id="guide3887"
       inkscape:locked="false" />
  </sodipodi:namedview>
  <metadata
     id="metadata5">
    <rdf:RDF>
      <cc:Work
         rdf:about="">
        <dc:format>image/svg+xml</dc:format>
        <dc:type
           rdf:resource="http://purl.org/dc/dcmitype/StillImage" />
        <dc:title></dc:title>
      </cc:Work>
    </rdf:RDF>
  </metadata>
  <g
     inkscape:groupmode="layer"
     id="layer5"
     inkscape:label="AJAX"
     style="display:inline">
    <g
       id="g3841"
       transform="matrix(0.35364523,0,0,0.35364523,-4.1769981,31.986012)">
      <g
         transform="translate(0,2)"
         style="fill:#8c96a1;fill-opacity:1"
         id="g4204">
        <path
           inkscape:connector-curvature="0"
           id="path4206"
           d="M 48.822266,90.923828 12.205078,172.94141 h 23.949219 l 7.119141,-17.38282 h 36.802734 l 7.11914,17.38282 H 111.14453 L 74.435547,90.923828 Z m 13.005859,19.337892 6.212891,15.5957 6.21289,15.59766 -12.388672,0.0293 -12.388672,0.0312 6.175782,-15.62695 6.175781,-15.62695 z"
           style="fill:#8c96a1;fill-opacity:1;fill-rule:evenodd;stroke:none;stroke-width:1px;stroke-linecap:butt;stroke-linejoin:miter;stroke-opacity:1" />
        <path
           inkscape:connector-curvature="0"
           style="fill:#8c96a1;fill-opacity:1;fill-rule:evenodd;stroke:none;stroke-width:1px;stroke-linecap:butt;stroke-linejoin:miter;stroke-opacity:1"
           d="m 226.42503,90.923828 -36.61718,82.017582 h 23.94922 l 7.11914,-17.38282 h 36.80273 l 7.11914,17.38282 H 288.7473 L 252.03832,90.923828 Z m 13.00586,19.337892 6.21289,15.5957 6.21289,15.59766 -12.38867,0.0293 -12.38867,0.0312 6.17578,-15.62695 6.17578,-15.62695 z"
           id="path4208" />
        <path
           inkscape:connector-curvature="0"
           id="path4210"
           d="m 295.01111,90.641009 h 27.19958 l 17.39204,26.153451 18.43818,-26.153451 h 26.80728 l -32.29951,39.753241 34.39178,42.82998 h -27.19958 l -19.74585,-27.92252 -19.35355,27.92252 h -29.03032 l 35.04561,-42.43768 z"
           style="fill:#8c96a1;fill-opacity:1;fill-rule:evenodd;stroke:none;stroke-width:1px;stroke-linecap:butt;stroke-linejoin:miter;stroke-opacity:1" />
        <path
           inkscape:connector-curvature="0"
           id="path4212"
           d="m 179.94141,55.929688 -32.56055,32.02539 11.20898,10.142578 10.60352,-10.660156 1.18359,0.002 v 61.1543 c 0,7.76349 -6.25018,14.01367 -14.01367,14.01367 h -11.13476 c -7.76349,0 -14.01368,-6.25018 -14.01368,-14.01367 v -6.52734 h -21.65039 v 8.1289 c 0,14.03603 11.29991,25.33594 25.33594,25.33594 h 28.76563 c 14.03602,0 25.33593,-11.29991 25.33593,-25.33594 V 87.482469 l 0.83789,0.002 12.38672,10.613281 9.74024,-10.142578 -32.02539,-32.02539 z"
           style="color:#000000;clip-rule:nonzero;display:inline;overflow:visible;visibility:visible;opacity:1;isolation:auto;mix-blend-mode:normal;color-interpolation:sRGB;color-interpolation-filters:linearRGB;solid-color:#000000;solid-opacity:1;fill:#8c96a1;fill-opacity:1;fill-rule:nonzero;stroke:none;stroke-width:4.5;stroke-linecap:round;stroke-linejoin:miter;stroke-miterlimit:4;stroke-dasharray:none;stroke-dashoffset:0;stroke-opacity:1;marker:none;color-rendering:auto;image-rendering:auto;shape-rendering:auto;text-rendering:auto;enable-background:accumulate" />
        <path
           inkscape:connector-curvature="0"
           style="color:#000000;clip-rule:nonzero;display:inline;overflow:visible;visibility:visible;opacity:1;isolation:auto;mix-blend-mode:normal;color-interpolation:sRGB;color-interpolation-filters:linearRGB;solid-color:#000000;solid-opacity:1;fill:#8c96a1;fill-opacity:1;fill-rule:nonzero;stroke:none;stroke-width:4.5;stroke-linecap:round;stroke-linejoin:miter;stroke-miterlimit:4;stroke-dasharray:none;stroke-dashoffset:0;stroke-opacity:1;marker:none;color-rendering:auto;image-rendering:auto;shape-rendering:auto;text-rendering:auto;enable-background:accumulate"
           d="m 120.2293,135.33257 32.56055,-32.02539 -11.20898,-10.142583 -10.60352,10.660153 -1.18359,-0.002 V 42.668455 c 0,-7.76349 6.25018,-14.01367 14.01367,-14.01367 h 11.13476 c 7.76349,0 14.01368,6.25018 14.01368,14.01367 v 6.52734 h 21.65039 v -8.1289 c 0,-14.03603 -11.29991,-25.33594 -25.33594,-25.33594 h -28.76563 c -14.03602,0 -25.33593,11.29991 -25.33593,25.33594 v 62.712895 l -0.83789,-0.002 -12.386718,-10.613293 -9.74024,10.142583 32.025388,32.02539 z"
           id="path4214" />
      </g>
      <path
         id="path3338"
         d="m 136.50391,15.730469 c -14.03602,0 -25.33594,11.299907 -25.33594,25.335937 V 103.7793 l -0.83789,-0.002 -12.386721,-10.613278 -9.740234,10.142578 32.025395,32.02539 32.56054,-32.02539 -11.20898,-10.142578 -10.60352,10.660158 -1.18359,-0.002 V 42.667969 c 0,-7.76349 6.25018,-14.013672 14.01367,-14.013672 h 11.13477 c 7.76349,0 14.01367,6.250182 14.01367,14.013672 v 6.527343 h 21.65039 v -8.128906 c 0,-14.03603 -11.29991,-25.335937 -25.33594,-25.335937 z m 43.4375,40.199219 -32.56055,32.02539 11.20898,10.142578 10.60352,-10.660156 1.18359,0.002 v 61.1543 c 0,7.76349 -6.25018,14.01367 -14.01367,14.01367 h -11.13476 c -7.76349,0 -14.01368,-6.25018 -14.01368,-14.01367 v -6.52734 h -21.65039 v 8.1289 c 0,14.03603 11.29991,25.33594 25.33594,25.33594 h 28.76563 c 14.03602,0 25.33593,-11.29991 25.33593,-25.33594 V 87.482422 l 0.83789,0.002 12.38672,10.613281 9.74024,-10.142578 z m 115.07031,34.710937 31.64453,40.146485 -35.04492,42.4375 h 29.02929 l 19.35352,-27.92383 19.74609,27.92383 h 27.20118 L 352.54883,130.39453 384.84766,90.640625 H 358.04102 L 339.60352,116.79492 322.21094,90.640625 Z M 48.822266,90.923828 12.205078,172.94141 h 23.949219 l 7.119141,-17.38282 h 36.802734 l 7.11914,17.38282 H 111.14453 L 74.435547,90.923828 Z m 177.603514,0 -36.61719,82.017582 h 23.94922 l 7.11914,-17.38282 h 36.80274 l 7.11914,17.38282 h 23.94922 L 252.03906,90.923828 Z m -164.597655,19.337892 6.212891,15.5957 6.21289,15.59766 -12.388672,0.0293 -12.388672,0.0312 6.175782,-15.62695 z m 177.603515,0 6.21289,15.5957 6.21289,15.59766 -12.38867,0.0293 -12.38867,0.0312 6.17578,-15.62695 z"
         style="fill:url(#linearGradient4228);fill-opacity:1;fill-rule:evenodd;stroke:#0c4c75;stroke-width:0.5;stroke-linecap:butt;stroke-linejoin:miter;stroke-miterlimit:4;stroke-dasharray:none;stroke-opacity:1"
         inkscape:connector-curvature="0" />
    </g>
  </g>
  <style
     id="style3865"
     type="text/css">
	.st0{fill:#DD0031;}
	.st1{fill:#C3002F;}
	.st2{fill:#FFFFFF;}
</style>
</svg>
