<?xml version="1.0" encoding="UTF-8" standalone="no"?>
<!-- Created with Inkscape (http://www.inkscape.org/) -->

<svg
   xmlns:dc="http://purl.org/dc/elements/1.1/"
   xmlns:cc="http://creativecommons.org/ns#"
   xmlns:rdf="http://www.w3.org/1999/02/22-rdf-syntax-ns#"
   xmlns:svg="http://www.w3.org/2000/svg"
   xmlns="http://www.w3.org/2000/svg"
   xmlns:xlink="http://www.w3.org/1999/xlink"
   xmlns:sodipodi="http://sodipodi.sourceforge.net/DTD/sodipodi-0.dtd"
   xmlns:inkscape="http://www.inkscape.org/namespaces/inkscape"
   width="500"
   height="500"
   viewBox="0 0 132.29166 132.29167"
   version="1.1"
   id="svg8"
   sodipodi:docname="doctrine.svg"
   inkscape:version="0.92.4 (5da689c313, 2019-01-14)">
  <defs
     id="defs2">
    <linearGradient
       id="linearGradient8385">
      <stop
         offset="0"
         style="stop-color:#000000;stop-opacity:1"
         id="stop8387" />
      <stop
         offset="1"
         style="stop-color:#ffffff;stop-opacity:1"
         id="stop8389" />
    </linearGradient>
    <linearGradient
       gradientTransform="matrix(0.99884,0,0,0.998699,689.00774,-388.84375)"
       gradientUnits="userSpaceOnUse"
       xlink:href="#linearGradient8385"
       id="linearGradient3002"
       y2="413.0452"
       x2="-666.11639"
       y1="525.90778"
       x1="-553.26971" />
    <linearGradient
       gradientTransform="matrix(0.99884,0,0,0.998699,689.00774,-388.84375)"
       gradientUnits="userSpaceOnUse"
       xlink:href="#linearGradient8385"
       id="linearGradient3005"
       y2="525.90759"
       x2="-553.2699"
       y1="413.04492"
       x1="-666.11664" />
    <filter
       id="filter4506"
       inkscape:label="Blur"
       style="color-interpolation-filters:sRGB">
      <feGaussianBlur
         id="feGaussianBlur4508"
         result="blur"
         stdDeviation="2 2" />
    </filter>
    <filter
       id="filter4548"
       inkscape:label="Drop Shadow"
       style="color-interpolation-filters:sRGB">
      <feFlood
         id="feFlood4550"
         result="flood"
         flood-color="rgb(0,0,0)"
         flood-opacity="0.498039" />
      <feComposite
         id="feComposite4552"
         result="composite1"
         operator="in"
         in2="SourceGraphic"
         in="flood" />
      <feGaussianBlur
         id="feGaussianBlur4554"
         result="blur"
         stdDeviation="3"
         in="composite1" />
      <feOffset
         id="feOffset4556"
         result="offset"
         dy="6"
         dx="6" />
      <feComposite
         id="feComposite4558"
         result="composite2"
         operator="over"
         in2="offset"
         in="SourceGraphic" />
    </filter>
  </defs>
  <sodipodi:namedview
     id="base"
     pagecolor="#ffffff"
     bordercolor="#666666"
     borderopacity="1.0"
     inkscape:pageopacity="0.0"
     inkscape:pageshadow="2"
     inkscape:zoom="0.77536335"
     inkscape:cx="289.8953"
     inkscape:cy="179.41073"
     inkscape:document-units="mm"
     inkscape:current-layer="layer22"
     showgrid="false"
     units="px"
     inkscape:window-width="1366"
     inkscape:window-height="705"
     inkscape:window-x="-8"
     inkscape:window-y="-8"
     inkscape:window-maximized="1"
     showguides="true"
     inkscape:guide-bbox="true">
    <sodipodi:guide
       position="17.639788,66.282845"
       orientation="0,1"
       id="guide3843"
       inkscape:locked="false" />
    <sodipodi:guide
       position="66.28284,49.177594"
       orientation="1,0"
       id="guide3887"
       inkscape:locked="false" />
  </sodipodi:namedview>
  <metadata
     id="metadata5">
    <rdf:RDF>
      <cc:Work
         rdf:about="">
        <dc:format>image/svg+xml</dc:format>
        <dc:type
           rdf:resource="http://purl.org/dc/dcmitype/StillImage" />
        <dc:title></dc:title>
      </cc:Work>
    </rdf:RDF>
  </metadata>
  <g
     inkscape:groupmode="layer"
     id="layer22"
     inkscape:label="Doctrine">
    <g
       id="g679"
       transform="matrix(0.3912854,0,0,0.3912854,16.246667,-0.35408433)">
      <path
         id="path665"
         d="m 208.493,111.5 c -0.294,-0.317 -0.562,-0.651 -0.872,-0.96 L 106.545,9.904 C 94.453,-2.131 74.89,-2.091 62.85,10.002 50.81,22.094 50.853,41.657 62.945,53.696 L 96.348,86.95 C 40.966,101.041 0,151.233 0,211 c 0,70.692 57.308,128 128,128 70.692,0 128,-57.308 128,-128 0,-40.189 -18.535,-76.032 -47.507,-99.5"
         inkscape:connector-curvature="0"
         style="fill:#fe8439" />
      <path
         id="path667"
         d="m 203.633,195.181 -73.048,-72.165 c -9.711,-9.594 -25.36,-9.495 -34.955,0.212 -9.594,9.712 -9.5,25.362 0.213,34.956 l 30.23,29.864 H 62.235 c -13.652,0 -24.718,11.066 -24.718,24.717 0,13.652 11.066,24.718 24.718,24.718 h 64.493 L 96.012,268.39 c -9.622,9.682 -9.572,25.332 0.109,34.957 a 24.644,24.644 0 0 0 17.424,7.184 c 6.35,0 12.702,-2.433 17.533,-7.293 l 70.73,-71.173 c 0.13,-0.13 0.24,-0.274 0.366,-0.407 a 24.648,24.648 0 0 0 6.952,-9.503 24.718,24.718 0 0 0 -5.493,-26.974"
         inkscape:connector-curvature="0"
         style="fill:#ffffff" />
    </g>
  </g>
  <style
     id="style3865"
     type="text/css">
	.st0{fill:#DD0031;}
	.st1{fill:#C3002F;}
	.st2{fill:#FFFFFF;}
</style>
</svg>
