<?xml version="1.0" encoding="UTF-8" standalone="no"?>
<!-- Created with Inkscape (http://www.inkscape.org/) -->

<svg
   xmlns:dc="http://purl.org/dc/elements/1.1/"
   xmlns:cc="http://creativecommons.org/ns#"
   xmlns:rdf="http://www.w3.org/1999/02/22-rdf-syntax-ns#"
   xmlns:svg="http://www.w3.org/2000/svg"
   xmlns="http://www.w3.org/2000/svg"
   xmlns:xlink="http://www.w3.org/1999/xlink"
   xmlns:sodipodi="http://sodipodi.sourceforge.net/DTD/sodipodi-0.dtd"
   xmlns:inkscape="http://www.inkscape.org/namespaces/inkscape"
   width="500"
   height="500"
   viewBox="0 0 132.29166 132.29167"
   version="1.1"
   id="svg8"
   sodipodi:docname="symfony.svg"
   inkscape:version="0.92.4 (5da689c313, 2019-01-14)">
  <defs
     id="defs2">
    <linearGradient
       id="linearGradient8385">
      <stop
         offset="0"
         style="stop-color:#000000;stop-opacity:1"
         id="stop8387" />
      <stop
         offset="1"
         style="stop-color:#ffffff;stop-opacity:1"
         id="stop8389" />
    </linearGradient>
    <linearGradient
       gradientTransform="matrix(0.99884,0,0,0.998699,689.00774,-388.84375)"
       gradientUnits="userSpaceOnUse"
       xlink:href="#linearGradient8385"
       id="linearGradient3002"
       y2="413.0452"
       x2="-666.11639"
       y1="525.90778"
       x1="-553.26971" />
    <linearGradient
       gradientTransform="matrix(0.99884,0,0,0.998699,689.00774,-388.84375)"
       gradientUnits="userSpaceOnUse"
       xlink:href="#linearGradient8385"
       id="linearGradient3005"
       y2="525.90759"
       x2="-553.2699"
       y1="413.04492"
       x1="-666.11664" />
    <filter
       id="filter4506"
       inkscape:label="Blur"
       style="color-interpolation-filters:sRGB">
      <feGaussianBlur
         id="feGaussianBlur4508"
         result="blur"
         stdDeviation="2 2" />
    </filter>
    <filter
       id="filter4548"
       inkscape:label="Drop Shadow"
       style="color-interpolation-filters:sRGB">
      <feFlood
         id="feFlood4550"
         result="flood"
         flood-color="rgb(0,0,0)"
         flood-opacity="0.498039" />
      <feComposite
         id="feComposite4552"
         result="composite1"
         operator="in"
         in2="SourceGraphic"
         in="flood" />
      <feGaussianBlur
         id="feGaussianBlur4554"
         result="blur"
         stdDeviation="3"
         in="composite1" />
      <feOffset
         id="feOffset4556"
         result="offset"
         dy="6"
         dx="6" />
      <feComposite
         id="feComposite4558"
         result="composite2"
         operator="over"
         in2="offset"
         in="SourceGraphic" />
    </filter>
  </defs>
  <sodipodi:namedview
     id="base"
     pagecolor="#ffffff"
     bordercolor="#666666"
     borderopacity="1.0"
     inkscape:pageopacity="0.0"
     inkscape:pageshadow="2"
     inkscape:zoom="0.75801847"
     inkscape:cx="315.22488"
     inkscape:cy="307.26755"
     inkscape:document-units="mm"
     inkscape:current-layer="layer17"
     showgrid="false"
     units="px"
     inkscape:window-width="1366"
     inkscape:window-height="705"
     inkscape:window-x="-8"
     inkscape:window-y="-8"
     inkscape:window-maximized="1"
     showguides="true"
     inkscape:guide-bbox="true">
    <sodipodi:guide
       position="17.639788,66.282845"
       orientation="0,1"
       id="guide3843"
       inkscape:locked="false" />
    <sodipodi:guide
       position="66.28284,49.177594"
       orientation="1,0"
       id="guide3887"
       inkscape:locked="false" />
  </sodipodi:namedview>
  <metadata
     id="metadata5">
    <rdf:RDF>
      <cc:Work
         rdf:about="">
        <dc:format>image/svg+xml</dc:format>
        <dc:type
           rdf:resource="http://purl.org/dc/dcmitype/StillImage" />
        <dc:title></dc:title>
      </cc:Work>
    </rdf:RDF>
  </metadata>
  <g
     inkscape:groupmode="layer"
     id="layer17"
     inkscape:label="SYMFONY"
     style="display:inline">
    <g
       id="g4974"
       transform="matrix(0.51676432,0,0,0.51676432,0,-0.4273612)">
      <circle
         id="circle4960"
         r="128"
         cy="128.827"
         cx="128"
         style="fill:#1a171b" />
      <path
         id="path4962"
         d="m 183.706,48.124 c -12.986,0.453 -24.32,7.61 -32.757,17.51 -9.342,10.855 -15.557,23.73 -20.035,36.872 -8.01,-6.565 -14.19,-15.064 -27.041,-18.77 -9.933,-2.852 -20.366,-1.674 -29.96,5.474 -4.545,3.395 -7.676,8.527 -9.165,13.351 -3.855,12.537 4.053,23.694 7.645,27.7 l 7.853,8.416 c 1.619,1.65 5.518,5.955 3.612,12.127 -2.06,6.71 -10.15,11.055 -18.448,8.495 -3.706,-1.13 -9.03,-3.891 -7.838,-7.779 0.493,-1.59 1.631,-2.78 2.241,-4.155 0.56,-1.181 0.827,-2.067 0.997,-2.587 1.516,-4.95 -0.555,-11.39 -5.857,-13.025 -4.946,-1.516 -10.007,-0.315 -11.969,6.054 -2.225,7.235 1.237,20.366 19.783,26.084 21.729,6.676 40.11,-5.155 42.717,-20.586 1.642,-9.665 -2.722,-16.845 -10.717,-26.08 l -6.514,-7.204 c -3.946,-3.942 -5.301,-10.661 -1.217,-15.825 3.446,-4.356 8.354,-6.215 16.392,-4.029 11.733,3.186 16.963,11.327 25.69,17.893 -3.603,11.819 -5.958,23.682 -8.09,34.32 l -1.299,7.931 c -6.238,32.721 -11,50.688 -23.375,61.003 -2.493,1.773 -6.057,4.427 -11.429,4.612 -2.816,0.087 -3.726,-1.85 -3.765,-2.694 -0.067,-1.977 1.599,-2.883 2.706,-3.773 1.654,-0.902 4.155,-2.398 3.985,-7.191 -0.18,-5.664 -4.872,-10.575 -11.654,-10.35 -5.08,0.173 -12.823,4.954 -12.532,13.705 0.303,9.039 8.728,15.813 21.43,15.384 6.79,-0.233 21.952,-2.997 36.895,-20.76 17.392,-20.362 22.256,-43.705 25.915,-60.79 l 4.084,-22.556 c 2.269,0.272 4.695,0.453 7.334,0.516 21.661,0.457 32.496,-10.763 32.657,-18.924 0.107,-4.939 -3.241,-9.799 -7.928,-9.689 -3.355,0.095 -7.57,2.328 -8.582,6.968 -0.988,4.552 6.893,8.66 0.733,12.65 -4.376,2.832 -12.221,4.828 -23.269,3.206 l 2.009,-11.103 c 4.1,-21.055 9.157,-46.954 28.341,-47.584 1.398,-0.071 6.514,0.063 6.633,3.446 0.035,1.13 -0.245,1.418 -1.568,4.005 -1.347,2.017 -1.855,3.734 -1.792,5.707 0.185,5.376 4.273,8.909 10.185,8.696 7.916,-0.256 10.193,-7.963 10.063,-11.921 -0.32,-9.3 -10.122,-15.175 -23.1,-14.75 z"
         inkscape:connector-curvature="0"
         style="fill:#ffffff" />
    </g>
  </g>
  <style
     id="style3865"
     type="text/css">
	.st0{fill:#DD0031;}
	.st1{fill:#C3002F;}
	.st2{fill:#FFFFFF;}
</style>
</svg>
