<?xml version="1.0" encoding="utf-8"?>
<!-- Generator: Adobe Illustrator 16.0.0, SVG Export Plug-In . SVG Version: 6.00 Build 0)  -->
<!DOCTYPE svg PUBLIC "-//W3C//DTD SVG 1.1//EN" "http://www.w3.org/Graphics/SVG/1.1/DTD/svg11.dtd">
<svg version="1.1" xmlns="http://www.w3.org/2000/svg" xmlns:xlink="http://www.w3.org/1999/xlink" x="0px" y="0px" width="36.75px"
	 height="42.52px" viewBox="0 0 36.75 42.52" enable-background="new 0 0 36.75 42.52" xml:space="preserve">
<g id="Calque_2_-_copie" display="none">
	<g display="inline">
		<g>
			<path fill="#009FE3" d="M12.335,34.566l-6.868-6.832l3.381-3.31l3.772,3.772l1.21-1.175V4.71L18.42,9.3v19.182L12.335,34.566z"/>
		</g>
		<g>
			<path fill="#009FE3" d="M25.264,34.566l-6.049-6.084V11.115l6.405-6.405l6.69,6.761l-3.523,3.452l-4.982-5.089v17.188
				l1.211,1.175l2.598-2.563v-3.168l4.626-4.661v9.786L25.264,34.566z"/>
		</g>
	</g>
</g>
<g id="logo" display="none">
	<g display="inline">
		<polygon points="36.837,31.834 18.456,42.447 0.076,31.834 0.076,10.613 18.456,0 36.837,10.613 		"/>
	</g>
	<g display="inline">
		<polygon fill="#009640" points="17.766,30.17 17.788,30.159 17.766,30.123 17.788,8.241 12.994,5.353 12.994,27.411 9.342,29.525 
			6.453,27.827 1.826,30.638 9.265,35.021 9.292,35.005 9.324,35.059 17.724,30.195 17.766,30.195 		"/>
		<polygon fill="#009640" points="35.003,30.842 35.035,19.195 30.381,21.921 30.381,28.452 28.079,29.817 23.9,27.411 23.9,10.956 
			27.375,12.959 32.075,10.227 23.9,5.492 23.9,5.353 19.105,8.241 19.127,30.123 19.106,30.159 19.127,30.17 19.127,30.195 
			19.171,30.195 27.57,35.059 27.601,35.005 27.626,35.021 		"/>
	</g>
</g>
<g id="logo_-_copie_3" display="none">
	<g display="inline">
		<polygon points="36.837,31.834 18.456,42.447 0.076,31.834 0.076,10.613 18.456,0 36.837,10.613 		"/>
	</g>
</g>
<g id="Calque_6">
	<g display="none">
		<polygon display="inline" fill="#009640" points="12.994,5.353 12.994,27.411 9.342,29.525 6.453,27.827 1.826,30.638 
			9.265,35.021 9.292,35.005 9.324,35.059 17.724,30.195 17.766,30.195 17.766,30.17 17.788,30.159 17.766,30.123 17.788,8.241 		
			"/>
		<polygon display="inline" fill="#009640" points="30.354,16.458 25.583,19.167 30.381,21.947 30.381,28.452 28.079,29.817 
			23.9,27.411 23.9,10.956 28.083,13.333 32.784,10.601 23.9,5.492 19.105,8.241 19.127,30.123 19.106,30.159 19.127,30.17 
			19.127,30.195 19.171,30.195 27.57,35.059 27.601,35.005 27.626,35.021 35.003,30.842 35.035,19.278 		"/>
	</g>
	<g id="logo_-_copie_4">
	</g>
	<g id="Logo_blanc">
		<path fill="#FFFFFF" d="M18.456,0L0.076,10.613v21.221l18.38,10.613l18.381-10.613V10.613L18.456,0z M17.788,30.159l-0.021,0.011
			v0.025h-0.042l-8.433,4.81l-0.027,0.017l-7.438-4.384l4.627-2.811l2.889,1.698l3.651-2.114V5.353l4.794,2.888l-0.022,21.882
			L17.788,30.159z M35.003,30.842l-7.377,4.18l-0.025-0.017l-8.43-4.81h-0.044V30.17l-0.021-0.011l0.021-0.036L19.105,8.241
			L23.9,5.492l8.884,5.109l-4.7,2.732L23.9,10.956v16.456l4.179,2.406l2.303-1.365v-6.505l-4.798-2.781l4.771-2.708l4.681,2.82
			L35.003,30.842z"/>
	</g>
	<g>
		<polygon fill="#FFFFFF" points="1.076,31.257 1.076,11.19 18.456,1.155 35.837,11.19 35.837,31.257 18.456,41.293 		"/>
		<path fill="#FFFFFF" d="M18.456,2.31l16.381,9.458V30.68l-16.381,9.458L2.076,30.68V11.768L18.456,2.31 M18.456,0L0.076,10.613
			v21.221l18.38,10.613l18.381-10.613V10.613L18.456,0L18.456,0z"/>
	</g>
	<g id="Logo_blanc_x5F_contour">
		<polygon fill="#010202" points="27.328,35.424 19.039,30.695 18.671,30.695 18.653,30.492 18.423,30.377 18.437,30.35 
			18.266,30.453 18.266,30.67 17.866,30.69 9.288,35.583 9.011,35.452 0.853,30.645 6.449,27.245 9.344,28.946 12.494,27.123 
			12.494,4.468 18.289,7.958 18.266,29.986 18.458,30.31 18.627,29.995 18.604,7.951 23.9,4.915 33.783,10.599 28.086,13.91 
			24.4,11.815 24.4,27.122 28.075,29.238 29.881,28.167 29.881,22.235 24.579,19.162 30.362,15.879 35.536,18.996 35.502,31.134 
			27.608,35.606 		"/>
		<path fill="#FFFFFF" d="M12.994,5.353l4.794,2.888l-0.022,21.882l0.021,0.036l-0.021,0.011v0.025h-0.042l-8.433,4.81l-0.027,0.017
			l-7.438-4.384l4.627-2.811l2.889,1.698l3.651-2.114V5.353 M23.9,5.492l8.884,5.109l-4.7,2.732L23.9,10.956v16.456l4.179,2.406
			l2.303-1.365v-6.505l-4.798-2.781l4.771-2.708l4.681,2.82l-0.031,11.563l-7.377,4.18l-0.025-0.017l-8.43-4.81h-0.044V30.17
			l-0.021-0.011l0.021-0.036L19.105,8.241L23.9,5.492 M11.994,3.583v1.77v21.482l-2.647,1.532L6.96,26.965l-0.515-0.303
			l-0.511,0.311l-4.627,2.811l-1.429,0.867l1.44,0.849l7.438,4.384l0.52,0.307l0.514-0.317l8.199-4.677h0.735l0-0.01l0.171,0.004
			l8.184,4.669l0.484,0.317l0.556-0.284l7.377-4.18l0.505-0.286l0.002-0.581l0.031-11.563l0.002-0.567l-0.486-0.292l-4.681-2.82
			l-0.501-0.302l-0.509,0.289l-4.771,2.708L24.9,18.405v-5.73l2.689,1.528l0.5,0.284l0.497-0.289l4.7-2.732l1.495-0.87l-1.499-0.862
			l-8.884-5.109l-0.498-0.287l-0.498,0.286l-4.795,2.749l-0.165,0.095l-0.139-0.083L13.51,4.497L11.994,3.583L11.994,3.583z
			 M24.9,26.833v-6.907l0.183,0.105l4.299,2.492v5.359l-1.311,0.776L24.9,26.833L24.9,26.833z"/>
	</g>
	<polygon display="none" fill="#DDD816" points="23.895,10.917 32.042,15.626 27.395,18.355 19.125,13.625 	"/>
</g>
<g id="logo_-_copie" display="none">
	<g display="inline">
		<path fill="#44A5BF" d="M18.456,0L0.076,10.613v21.221l18.38,10.613l18.381-10.613V10.613L18.456,0z M17.788,30.159l-0.021,0.011
			v0.025h-0.042l-8.4,4.863l-0.032-0.054l-0.027,0.017l-7.438-4.384l4.627-2.811l2.889,1.698l3.651-2.114V5.353l4.794,2.888
			l-0.022,21.882L17.788,30.159z M35.003,30.842l-7.377,4.18l-0.025-0.017l-0.031,0.054l-8.398-4.863h-0.044V30.17l-0.021-0.011
			l0.021-0.036L19.105,8.241L23.9,5.353v0.139l8.175,4.735l-4.7,2.732L23.9,10.956v16.456l4.179,2.406l2.303-1.365v-6.531
			l4.653-2.726L35.003,30.842z"/>
	</g>
</g>
<g id="logo_-_copie_2" display="none">
	<g display="inline">
		<path fill="#FFFFFF" d="M18.456,0L0.076,10.613v21.221l18.38,10.613l18.381-10.613V10.613L18.456,0z M17.788,30.159l-0.021,0.011
			v0.025h-0.042l-8.4,4.863l-0.032-0.054l-0.027,0.017l-7.438-4.384l4.627-2.811l2.889,1.698l3.651-2.114V5.353l4.794,2.888
			l-0.022,21.882L17.788,30.159z M35.003,30.842l-7.377,4.18l-0.025-0.017l-0.031,0.054l-8.398-4.863h-0.044V30.17l-0.021-0.011
			l0.021-0.036L19.105,8.241L23.9,5.353v0.139l8.175,4.735l-4.7,2.732L23.9,10.956v16.456l4.179,2.406l2.303-1.365v-6.531
			l4.653-2.726L35.003,30.842z"/>
	</g>
</g>
</svg>
