<?xml version="1.0" encoding="utf-8"?>
<!-- Generator: Adobe Illustrator 16.0.0, SVG Export Plug-In . SVG Version: 6.00 Build 0)  -->
<!DOCTYPE svg PUBLIC "-//W3C//DTD SVG 1.1 Basic//EN" "http://www.w3.org/Graphics/SVG/1.1/DTD/svg11-basic.dtd">
<svg version="1.1" baseProfile="basic" id="logo_-_copie"
	 xmlns="http://www.w3.org/2000/svg" xmlns:xlink="http://www.w3.org/1999/xlink" x="0px" y="0px" width="36.75px" height="42.52px"
	 viewBox="0 0 36.75 42.52" xml:space="preserve">
<path d="M18.456,0L0.076,10.613v21.221l18.38,10.613l18.381-10.613V10.613L18.456,0z M17.788,30.159l-0.021,0.011v0.025h-0.042
	l-8.4,4.863l-0.032-0.054l-0.027,0.017l-7.438-4.384l4.627-2.811l2.889,1.698l3.651-2.114V5.353l4.794,2.888l-0.022,21.882
	L17.788,30.159z M35.003,30.842l-7.377,4.18l-0.025-0.017l-0.031,0.054l-8.398-4.863h-0.044V30.17l-0.021-0.011l0.021-0.036
	L19.105,8.241L23.9,5.353v0.139l8.175,4.735l-4.7,2.732L23.9,10.956v16.456l4.179,2.406l2.303-1.365v-6.531l4.653-2.726
	L35.003,30.842z"/>
</svg>
