<?xml version="1.0" encoding="utf-8"?>
<!-- Generator: Adobe Illustrator 16.0.0, SVG Export Plug-In . SVG Version: 6.00 Build 0)  -->
<!DOCTYPE svg PUBLIC "-//W3C//DTD SVG 1.1//EN" "http://www.w3.org/Graphics/SVG/1.1/DTD/svg11.dtd">
<svg version="1.1" xmlns="http://www.w3.org/2000/svg" xmlns:xlink="http://www.w3.org/1999/xlink" x="0px" y="0px" width="36.75px"
	 height="42.52px" viewBox="0 0 36.75 42.52" enable-background="new 0 0 36.75 42.52" xml:space="preserve">
<g id="Calque_2_-_copie" display="none">
	<g display="inline">
		<g>
			<path fill="#009FE3" d="M12.335,34.566l-6.868-6.832l3.381-3.31l3.772,3.772l1.21-1.175V4.71L18.42,9.3v19.182L12.335,34.566z"/>
		</g>
		<g>
			<path fill="#009FE3" d="M25.264,34.566l-6.049-6.084V11.115l6.405-6.405l6.69,6.761l-3.523,3.452l-4.982-5.089v17.188
				l1.211,1.175l2.598-2.563v-3.168l4.626-4.661v9.786L25.264,34.566z"/>
		</g>
	</g>
</g>
<g id="logo" display="none">
	<g display="inline">
		<polygon points="36.837,31.834 18.456,42.447 0.076,31.834 0.076,10.613 18.456,0 36.837,10.613 		"/>
	</g>
	<g display="inline">
		<polygon fill="#009640" points="17.766,30.17 17.788,30.159 17.766,30.123 17.788,8.241 12.994,5.353 12.994,27.411 9.342,29.525 
			6.453,27.827 1.826,30.638 9.265,35.021 9.292,35.005 9.324,35.059 17.724,30.195 17.766,30.195 		"/>
		<polygon fill="#009640" points="35.003,30.842 35.035,19.195 30.381,21.921 30.381,28.452 28.079,29.817 23.9,27.411 23.9,10.956 
			27.375,12.959 32.075,10.227 23.9,5.492 23.9,5.353 19.105,8.241 19.127,30.123 19.106,30.159 19.127,30.17 19.127,30.195 
			19.171,30.195 27.57,35.059 27.601,35.005 27.626,35.021 		"/>
	</g>
</g>
<g id="logo_-_copie_3" display="none">
	<g display="inline">
		<polygon points="36.837,31.834 18.456,42.447 0.076,31.834 0.076,10.613 18.456,0 36.837,10.613 		"/>
	</g>
</g>
<g id="Calque_6">
	<g display="none">
		<polygon display="inline" fill="#009640" points="12.994,5.353 12.994,27.411 9.342,29.525 6.453,27.827 1.826,30.638 
			9.265,35.021 9.292,35.005 9.324,35.059 17.724,30.195 17.766,30.195 17.766,30.17 17.788,30.159 17.766,30.123 17.788,8.241 		
			"/>
		<polygon display="inline" fill="#009640" points="30.354,16.458 25.583,19.167 30.381,21.947 30.381,28.452 28.079,29.817 
			23.9,27.411 23.9,10.956 28.083,13.333 32.784,10.601 23.9,5.492 19.105,8.241 19.127,30.123 19.106,30.159 19.127,30.17 
			19.127,30.195 19.171,30.195 27.57,35.059 27.601,35.005 27.626,35.021 35.003,30.842 35.035,19.278 		"/>
	</g>
	<g id="logo_-_copie_4">
	</g>
	<g>
		<path fill="#FFFFFF" d="M18.456,0L0.076,10.613v21.221l18.38,10.613l18.381-10.613V10.613L18.456,0z M17.788,30.159l-0.021,0.011
			v0.025h-0.042l-8.433,4.81l-0.027,0.017l-7.438-4.384l4.627-2.811l2.889,1.698l3.651-2.114V5.353l4.794,2.888l-0.022,21.882
			L17.788,30.159z M35.003,30.842l-7.377,4.18l-0.025-0.017l-8.43-4.81h-0.044V30.17l-0.021-0.011l0.021-0.036L19.105,8.241
			L23.9,5.492l8.884,5.109l-4.7,2.732L23.9,10.956v16.456l4.179,2.406l2.303-1.365v-6.505l-4.798-2.781l4.771-2.708l4.681,2.82
			L35.003,30.842z"/>
	</g>
	<polygon display="none" fill="#DDD816" points="23.895,10.917 32.042,15.626 27.395,18.355 19.125,13.625 	"/>
</g>
<g id="logo_-_copie" display="none">
	<g display="inline">
		<path fill="#44A5BF" d="M18.456,0L0.076,10.613v21.221l18.38,10.613l18.381-10.613V10.613L18.456,0z M17.788,30.159l-0.021,0.011
			v0.025h-0.042l-8.4,4.863l-0.032-0.054l-0.027,0.017l-7.438-4.384l4.627-2.811l2.889,1.698l3.651-2.114V5.353l4.794,2.888
			l-0.022,21.882L17.788,30.159z M35.003,30.842l-7.377,4.18l-0.025-0.017l-0.031,0.054l-8.398-4.863h-0.044V30.17l-0.021-0.011
			l0.021-0.036L19.105,8.241L23.9,5.353v0.139l8.175,4.735l-4.7,2.732L23.9,10.956v16.456l4.179,2.406l2.303-1.365v-6.531
			l4.653-2.726L35.003,30.842z"/>
	</g>
</g>
<g id="logo_-_copie_2" display="none">
	<g display="inline">
		<path fill="#FFFFFF" d="M18.456,0L0.076,10.613v21.221l18.38,10.613l18.381-10.613V10.613L18.456,0z M17.788,30.159l-0.021,0.011
			v0.025h-0.042l-8.4,4.863l-0.032-0.054l-0.027,0.017l-7.438-4.384l4.627-2.811l2.889,1.698l3.651-2.114V5.353l4.794,2.888
			l-0.022,21.882L17.788,30.159z M35.003,30.842l-7.377,4.18l-0.025-0.017l-0.031,0.054l-8.398-4.863h-0.044V30.17l-0.021-0.011
			l0.021-0.036L19.105,8.241L23.9,5.353v0.139l8.175,4.735l-4.7,2.732L23.9,10.956v16.456l4.179,2.406l2.303-1.365v-6.531
			l4.653-2.726L35.003,30.842z"/>
	</g>
</g>
</svg>
