<?xml version="1.0" encoding="utf-8"?>
<!-- Generator: Adobe Illustrator 16.0.0, SVG Export Plug-In . SVG Version: 6.00 Build 0)  -->
<!DOCTYPE svg PUBLIC "-//W3C//DTD SVG 1.1//EN" "http://www.w3.org/Graphics/SVG/1.1/DTD/svg11.dtd">
<svg version="1.1" xmlns="http://www.w3.org/2000/svg" xmlns:xlink="http://www.w3.org/1999/xlink" x="0px" y="0px"
	 width="191.333px" height="206.667px" viewBox="0 0 191.333 206.667" enable-background="new 0 0 191.333 206.667"
	 xml:space="preserve">
<g id="Calque_1" display="none">
</g>
<g id="Calque_4" display="none">
</g>
<g id="logo" display="none">
	<g id="logo_applati" display="inline" opacity="0.4">
		<rect x="-69" y="-22.671" width="360" height="238"/>
		<path opacity="0.8" fill="#FFFFFF" d="M96.25,3.078v-0.71L2.458,35.992l14.296,123.395l0.029,0.254l79.593,44.542L96.25,3.078z
			 M40.5,144.829l-0.059-0.547l-0.209,0.022l-3.587-33.604l18.229-1.946l2.959,27.72l14.501,7.798l0-87.633L32.25,69.829
			l-2.259-16.479L90.25,31.829l0.191,7.167h0.226v8.47l0.083,3.113l-0.083,0.027V154.13l0.083,0.045l0.052,19.602L40.5,144.829z"/>
		<path opacity="0.6" fill="#FFFDFD" d="M95.63,2.368l-0.125,200.96l-0.001,0.854l79.373-44.417l0.223-0.125l14.281-123.254
			l0.045-0.395L95.63,2.368z M160.551,69.829l-40.086-13.19v87.633l14.501-7.797l2.341-21.922l-13.17,5.803l0.002-18.799
			l33.111-13.979l-1.159,17.137l0.064-0.015l-1.94,21.424l0.085-0.046l-0.535,5.017l-1.196,13.209l-0.21-0.022l-0.059,0.547
			l-50.304,28.948l0.052-19.602l0.083-0.045V50.606l-0.083-0.027l0.083-3.113v-8.47h0.226l0.191-7.167l60.262,21.521L160.551,69.829
			z"/>
	</g>
</g>
<g id="Calque_6">
	<g id="logo_non_applati_1_">
		<rect x="-69" y="-22.671" display="none" width="360" height="238"/>
		<g>
			<path opacity="0.9" fill="#FFFFFF" d="M96.25,3.078v-0.71L2.458,35.992l14.296,123.395l0.029,0.254l79.593,44.542L96.25,3.078z
				 M88,159.042v1.287v23.54l-58.739-32.867l-3.489-26.78l40.562,22.696V28.662l21.667-8V159.042z"/>
			<g opacity="0.7">
				<path fill="#FFFDFD" d="M95.63,2.368l-0.125,200.96l-0.001,0.854l79.373-44.417l0.223-0.125l14.281-123.254l0.045-0.395
					L95.63,2.368z M163.5,150.829l-0.465-0.011l-0.024,0.184l-58.739,32.867v-23.54v-1.287V20.662l21.666,8v0.175L138,33.211
					l-1,19.466l-11.063-3.375v97.616l21.901-9.457l2.328-27.055l-9.917,1.693V94.014l28.584-2.019L163.5,150.829z"/>
			</g>
		</g>
	</g>
</g>
</svg>
